<?xml version="1.0" encoding="utf-8"?>
<!-- Generator: Adobe Illustrator 25.0.1, SVG Export Plug-In . SVG Version: 6.00 Build 0)  -->
<svg version="1.1" id="圖層_1" xmlns="http://www.w3.org/2000/svg" xmlns:xlink="http://www.w3.org/1999/xlink" x="0px" y="0px"
	 viewBox="0 0 250 250" style="enable-background:new 0 0 250 250;" xml:space="preserve">
<style type="text/css">
	.st0{fill:#0C5A84;stroke:#FFFFFF;stroke-miterlimit:10;}
	.st1{fill:none;stroke:#FFFFFF;stroke-width:14;stroke-miterlimit:10;}
</style>
<rect x="7" y="6.7" class="st0" width="90" height="12.2"/>
<rect x="153" y="6.7" class="st0" width="90" height="12.2"/>
<rect x="99.2" y="6.7" class="st0" width="51.6" height="12.2"/>
<rect x="7" y="51.7" class="st0" width="90" height="12.2"/>
<rect x="153" y="51.7" class="st0" width="90" height="12.2"/>
<rect x="99.2" y="51.7" class="st0" width="51.6" height="12.2"/>
<rect x="7" y="51.7" class="st1" width="90" height="12.2"/>
<rect x="153" y="51.7" class="st1" width="90" height="12.2"/>
<rect x="99.2" y="51.7" class="st1" width="51.6" height="12.2"/>
<rect x="7" y="96.5" class="st1" width="90" height="12.2"/>
<rect x="153" y="96.5" class="st1" width="90" height="12.2"/>
<rect x="99.2" y="96.5" class="st1" width="51.6" height="12.2"/>
<rect x="7" y="6.7" class="st1" width="90" height="12.2"/>
<rect x="153" y="6.7" class="st1" width="90" height="12.2"/>
<rect x="99.2" y="6.7" class="st1" width="51.6" height="12.2"/>
<rect x="7" y="186.9" class="st0" width="90" height="12.2"/>
<rect x="153" y="186.9" class="st0" width="90" height="12.2"/>
<rect x="7" y="141.8" class="st0" width="90" height="12.2"/>
<rect x="153" y="141.8" class="st0" width="90" height="12.2"/>
<rect x="7" y="141.8" class="st1" width="90" height="12.2"/>
<rect x="153" y="141.8" class="st1" width="90" height="12.2"/>
<rect x="153" y="186.9" class="st1" width="90" height="12.2"/>
<rect x="7" y="186.9" class="st1" width="90" height="12.2"/>
<rect x="7" y="231.1" class="st0" width="90" height="12.2"/>
<rect x="153" y="231.1" class="st0" width="90" height="12.2"/>
<rect x="153" y="231.1" class="st1" width="90" height="12.2"/>
<rect x="7" y="231.1" class="st1" width="90" height="12.2"/>
</svg>
