<?xml version="1.0" encoding="utf-8"?>
<!-- Generator: Adobe Illustrator 25.0.1, SVG Export Plug-In . SVG Version: 6.00 Build 0)  -->
<svg version="1.1" id="圖層_1" xmlns="http://www.w3.org/2000/svg" xmlns:xlink="http://www.w3.org/1999/xlink" x="0px" y="0px"
	 viewBox="0 0 250 250" style="enable-background:new 0 0 250 250;" xml:space="preserve">
<style type="text/css">
	.st0{fill:#FFFFFF;stroke:#FFFFFF;stroke-miterlimit:10;}
</style>
<g>
	<g>
		<path class="st0" d="M-0.1,125c0-11.5,1.5-22.5,4.4-33.2c2.9-10.7,7.1-20.7,12.4-29.9c5.3-9.3,11.8-17.7,19.4-25.3
			s16-14.1,25.2-19.6c9.2-5.4,19.2-9.7,29.9-12.6c10.7-3,21.9-4.5,33.6-4.5s22.9,1.5,33.6,4.5c10.7,3,20.7,7.2,30,12.6
			c9.3,5.5,17.7,12,25.3,19.6c7.6,7.6,14.1,16,19.5,25.3s9.6,19.2,12.5,29.9c2.9,10.7,4.4,21.7,4.4,33.2c0,11.6-1.5,22.7-4.5,33.3
			s-7.2,20.6-12.6,29.8c-5.5,9.3-12,17.7-19.6,25.3c-7.6,7.6-16.1,14.1-25.4,19.5s-19.2,9.6-29.9,12.6s-21.7,4.5-33.2,4.5
			c-11.6,0-22.7-1.5-33.3-4.5s-20.6-7.2-29.8-12.6c-9.3-5.4-17.7-11.9-25.3-19.5s-14.1-16-19.5-25.3s-9.6-19.2-12.6-29.9
			C1.4,147.5-0.1,136.4-0.1,125z M19.1,125c0-7.9,1.4-14.9,4.2-21.2c2.8-6.2,6.5-11.5,11.2-15.8c4.7-4.3,10-7.6,15.9-9.9
			c6-2.2,12.1-3.4,18.4-3.4c8.8,0,16.3,1.4,22.6,4.3c6.3,2.9,11.6,6.7,16,11.4s7.9,10.1,10.7,16.1s5,12.2,6.7,18.5
			c1.7,6.3,4,12.4,6.8,18.5c2.9,6,6.5,11.4,11,16c4.5,4.7,9.9,8.4,16.1,11.3c6.2,2.9,13.6,4.3,22,4.3c6.9,0,13.3-1.2,19.4-3.5
			c6.1-2.3,11.4-5.7,15.9-10.1c4.6-4.4,8.1-9.7,10.8-15.8c2.6-6.2,4-13,4-20.6c0-9.6-1.2-18.9-3.6-27.9c-2.4-9-5.9-17.5-10.4-25.4
			s-9.9-15.1-16.3-21.7c-6.4-6.6-13.4-12.2-21.2-16.9s-16.3-8.4-25.5-11s-18.9-3.9-29-3.9c-15.2,0-29.2,2.9-42.1,8.6
			c-12.9,5.7-24.1,13.5-33.5,23.2s-16.8,21-22.1,34C21.8,96.9,19.1,110.6,19.1,125z M68.9,144c2.7,0,5.2-0.5,7.5-1.5s4.3-2.4,6.1-4
			c1.7-1.7,3.1-3.7,4-6c1-2.3,1.4-4.8,1.4-7.5c0-2.5-0.5-4.9-1.4-7.2c-1-2.3-2.3-4.4-4-6.2c-1.7-1.8-3.8-3.2-6.1-4.2
			s-4.8-1.5-7.5-1.5s-5.2,0.5-7.4,1.5s-4.2,2.4-5.8,4.2s-2.9,3.9-3.9,6.2c-1,2.3-1.4,4.7-1.4,7.2c0,5.4,1.7,9.9,5.2,13.6
			C59,142.2,63.5,144,68.9,144z M180.6,144c-5.4,0-9.8-1.8-13.3-5.5s-5.2-8.2-5.2-13.6c0-2.5,0.5-4.9,1.4-7.2c1-2.3,2.2-4.4,3.9-6.2
			c1.6-1.8,3.6-3.2,5.8-4.2c2.2-1,4.7-1.5,7.4-1.5s5.2,0.5,7.5,1.5s4.3,2.4,6.1,4.2c1.7,1.8,3.1,3.9,4,6.2c1,2.3,1.4,4.7,1.4,7.2
			c0,2.7-0.5,5.2-1.4,7.5c-1,2.3-2.3,4.3-4,6c-1.7,1.7-3.8,3-6.1,4C185.8,143.5,183.3,144,180.6,144z"/>
	</g>
</g>
</svg>
